<?xml version="1.0" standalone="no"?><!DOCTYPE svg PUBLIC "-//W3C//DTD SVG 1.1//EN" "http://www.w3.org/Graphics/SVG/1.1/DTD/svg11.dtd"><svg t="1606969028871" class="icon" viewBox="0 0 1024 1024" version="1.1" xmlns="http://www.w3.org/2000/svg" p-id="8932" width="32" height="32" xmlns:xlink="http://www.w3.org/1999/xlink"><defs><style type="text/css"></style></defs><path d="M425.5 210.5c33 0 60-27 60-60s-27-60-60-60-60 27-60 60c0 33.1 27 60 60 60z" fill="#5100A1" p-id="8933"></path><path d="M430.4 149.7m-60 0a60 60 0 1 0 120 0 60 60 0 1 0-120 0Z" fill="#5104A3" p-id="8934"></path><path d="M435.2 149m-60 0a60 60 0 1 0 120 0 60 60 0 1 0-120 0Z" fill="#5108A4" p-id="8935"></path><path d="M440 148.2m-60 0a60 60 0 1 0 120 0 60 60 0 1 0-120 0Z" fill="#510CA6" p-id="8936"></path><path d="M444.9 147.4m-60 0a60 60 0 1 0 120 0 60 60 0 1 0-120 0Z" fill="#5211A7" p-id="8937"></path><path d="M449.7 146.6m-60 0a60 60 0 1 0 120 0 60 60 0 1 0-120 0Z" fill="#5215A9" p-id="8938"></path><path d="M454.5 145.8m-60 0a60 60 0 1 0 120 0 60 60 0 1 0-120 0Z" fill="#5219AA" p-id="8939"></path><path d="M459.4 145m-60 0a60 60 0 1 0 120 0 60 60 0 1 0-120 0Z" fill="#521DAC" p-id="8940"></path><path d="M464.2 144.2m-60 0a60 60 0 1 0 120 0 60 60 0 1 0-120 0Z" fill="#5221AD" p-id="8941"></path><path d="M469.1 143.4m-60 0a60 60 0 1 0 120 0 60 60 0 1 0-120 0Z" fill="#5225AF" p-id="8942"></path><path d="M473.9 142.7m-60 0a60 60 0 1 0 120 0 60 60 0 1 0-120 0Z" fill="#5229B0" p-id="8943"></path><path d="M478.7 141.9m-60 0a60 60 0 1 0 120 0 60 60 0 1 0-120 0Z" fill="#522DB2" p-id="8944"></path><path d="M483.6 141.1m-60 0a60 60 0 1 0 120 0 60 60 0 1 0-120 0Z" fill="#5332B3" p-id="8945"></path><path d="M488.4 140.3m-60 0a60 60 0 1 0 120 0 60 60 0 1 0-120 0Z" fill="#5336B5" p-id="8946"></path><path d="M493.2 139.5m-60 0a60 60 0 1 0 120 0 60 60 0 1 0-120 0Z" fill="#533AB7" p-id="8947"></path><path d="M498.1 138.7m-60 0a60 60 0 1 0 120 0 60 60 0 1 0-120 0Z" fill="#533EB8" p-id="8948"></path><path d="M502.9 137.9m-60 0a60 60 0 1 0 120 0 60 60 0 1 0-120 0Z" fill="#5342BA" p-id="8949"></path><path d="M507.8 137.1m-60 0a60 60 0 1 0 120 0 60 60 0 1 0-120 0Z" fill="#5346BB" p-id="8950"></path><path d="M512.6 136.4m-60 0a60 60 0 1 0 120 0 60 60 0 1 0-120 0Z" fill="#534ABD" p-id="8951"></path><path d="M517.4 135.6m-60 0a60 60 0 1 0 120 0 60 60 0 1 0-120 0Z" fill="#534EBE" p-id="8952"></path><path d="M522.3 134.8m-60 0a60 60 0 1 0 120 0 60 60 0 1 0-120 0Z" fill="#5453C0" p-id="8953"></path><path d="M527.1 134m-60 0a60 60 0 1 0 120 0 60 60 0 1 0-120 0Z" fill="#5457C1" p-id="8954"></path><path d="M531.9 133.2m-60 0a60 60 0 1 0 120 0 60 60 0 1 0-120 0Z" fill="#545BC3" p-id="8955"></path><path d="M536.8 132.4m-60 0a60 60 0 1 0 120 0 60 60 0 1 0-120 0Z" fill="#545FC4" p-id="8956"></path><path d="M541.6 131.6m-60 0a60 60 0 1 0 120 0 60 60 0 1 0-120 0Z" fill="#5463C6" p-id="8957"></path><path d="M546.5 130.9m-60 0a60 60 0 1 0 120 0 60 60 0 1 0-120 0Z" fill="#5467C8" p-id="8958"></path><path d="M551.3 130.1m-60 0a60 60 0 1 0 120 0 60 60 0 1 0-120 0Z" fill="#546BC9" p-id="8959"></path><path d="M556.1 129.3m-60 0a60 60 0 1 0 120 0 60 60 0 1 0-120 0Z" fill="#5570CB" p-id="8960"></path><path d="M561 128.5m-60 0a60 60 0 1 0 120 0 60 60 0 1 0-120 0Z" fill="#5574CC" p-id="8961"></path><path d="M565.8 127.7m-60 0a60 60 0 1 0 120 0 60 60 0 1 0-120 0Z" fill="#5578CE" p-id="8962"></path><path d="M570.6 126.9m-60 0a60 60 0 1 0 120 0 60 60 0 1 0-120 0Z" fill="#557CCF" p-id="8963"></path><path d="M575.5 126.1m-60 0a60 60 0 1 0 120 0 60 60 0 1 0-120 0Z" fill="#5580D1" p-id="8964"></path><path d="M580.3 125.3m-60 0a60 60 0 1 0 120 0 60 60 0 1 0-120 0Z" fill="#5584D2" p-id="8965"></path><path d="M585.2 124.6m-60 0a60 60 0 1 0 120 0 60 60 0 1 0-120 0Z" fill="#5588D4" p-id="8966"></path><path d="M590 123.8m-60 0a60 60 0 1 0 120 0 60 60 0 1 0-120 0Z" fill="#558CD5" p-id="8967"></path><path d="M594.8 123m-60 0a60 60 0 1 0 120 0 60 60 0 1 0-120 0Z" fill="#5691D7" p-id="8968"></path><path d="M598.5 123.6m-60 0a60 60 0 1 0 120 0 60 60 0 1 0-120 0Z" fill="#5695D8" p-id="8969"></path><path d="M598.5 128.5m-60 0a60 60 0 1 0 120 0 60 60 0 1 0-120 0Z" fill="#5699DA" p-id="8970"></path><path d="M598.5 133.4m-60 0a60 60 0 1 0 120 0 60 60 0 1 0-120 0Z" fill="#569DDC" p-id="8971"></path><path d="M598.5 138.3m-60 0a60 60 0 1 0 120 0 60 60 0 1 0-120 0Z" fill="#56A1DD" p-id="8972"></path><path d="M598.5 143.2m-60 0a60 60 0 1 0 120 0 60 60 0 1 0-120 0Z" fill="#56A5DF" p-id="8973"></path><path d="M598.5 148.1m-60 0a60 60 0 1 0 120 0 60 60 0 1 0-120 0Z" fill="#56A9E0" p-id="8974"></path><path d="M598.5 153m-60 0a60 60 0 1 0 120 0 60 60 0 1 0-120 0Z" fill="#57AEE2" p-id="8975"></path><path d="M598.5 157.9m-60 0a60 60 0 1 0 120 0 60 60 0 1 0-120 0Z" fill="#57B2E3" p-id="8976"></path><path d="M598.5 162.8m-60 0a60 60 0 1 0 120 0 60 60 0 1 0-120 0Z" fill="#57B6E5" p-id="8977"></path><path d="M598.5 167.7m-60 0a60 60 0 1 0 120 0 60 60 0 1 0-120 0Z" fill="#57BAE6" p-id="8978"></path><path d="M598.5 172.6m-60 0a60 60 0 1 0 120 0 60 60 0 1 0-120 0Z" fill="#57BEE8" p-id="8979"></path><path d="M598.5 177.5m-60 0a60 60 0 1 0 120 0 60 60 0 1 0-120 0Z" fill="#57C2E9" p-id="8980"></path><path d="M598.5 182.4m-60 0a60 60 0 1 0 120 0 60 60 0 1 0-120 0Z" fill="#57C6EB" p-id="8981"></path><path d="M598.5 187.3m-60 0a60 60 0 1 0 120 0 60 60 0 1 0-120 0Z" fill="#57CAED" p-id="8982"></path><path d="M598.5 192.2m-60 0a60 60 0 1 0 120 0 60 60 0 1 0-120 0Z" fill="#58CFEE" p-id="8983"></path><path d="M598.5 197.1m-60 0a60 60 0 1 0 120 0 60 60 0 1 0-120 0Z" fill="#58D3F0" p-id="8984"></path><path d="M598.5 202m-60 0a60 60 0 1 0 120 0 60 60 0 1 0-120 0Z" fill="#58D7F1" p-id="8985"></path><path d="M598.5 206.9m-60 0a60 60 0 1 0 120 0 60 60 0 1 0-120 0Z" fill="#58DBF3" p-id="8986"></path><path d="M598.5 211.8m-60 0a60 60 0 1 0 120 0 60 60 0 1 0-120 0Z" fill="#58DFF4" p-id="8987"></path><path d="M598.5 216.7m-60 0a60 60 0 1 0 120 0 60 60 0 1 0-120 0Z" fill="#58E3F6" p-id="8988"></path><path d="M598.5 221.6m-60 0a60 60 0 1 0 120 0 60 60 0 1 0-120 0Z" fill="#58E7F7" p-id="8989"></path><path d="M598.5 226.5m-60 0a60 60 0 1 0 120 0 60 60 0 1 0-120 0Z" fill="#58EBF9" p-id="8990"></path><path d="M598.5 231.4m-60 0a60 60 0 1 0 120 0 60 60 0 1 0-120 0Z" fill="#59F0FA" p-id="8991"></path><path d="M598.5 236.3m-60 0a60 60 0 1 0 120 0 60 60 0 1 0-120 0Z" fill="#59F4FC" p-id="8992"></path><path d="M598.5 241.2m-60 0a60 60 0 1 0 120 0 60 60 0 1 0-120 0Z" fill="#59F8FD" p-id="8993"></path><path d="M598.5 306.1c33 0 60-27 60-60s-27-60-60-60-60 27-60 60c0 33.1 26.9 60 60 60z" fill="#59FCFF" p-id="8994"></path><path d="M598.5 250.8m-60 0a60 60 0 1 0 120 0 60 60 0 1 0-120 0Z" fill="#59FBFF" p-id="8995"></path><path d="M598.5 255.4m-60 0a60 60 0 1 0 120 0 60 60 0 1 0-120 0Z" fill="#5AF9FF" p-id="8996"></path><path d="M598.5 260.1m-60 0a60 60 0 1 0 120 0 60 60 0 1 0-120 0Z" fill="#5AF8FF" p-id="8997"></path><path d="M598.5 264.7m-60 0a60 60 0 1 0 120 0 60 60 0 1 0-120 0Z" fill="#5AF7FF" p-id="8998"></path><path d="M598.5 269.4m-60 0a60 60 0 1 0 120 0 60 60 0 1 0-120 0Z" fill="#5BF6FF" p-id="8999"></path><path d="M598.5 274m-60 0a60 60 0 1 0 120 0 60 60 0 1 0-120 0Z" fill="#5BF4FF" p-id="9000"></path><path d="M598.5 278.6m-60 0a60 60 0 1 0 120 0 60 60 0 1 0-120 0Z" fill="#5BF3FF" p-id="9001"></path><path d="M598.5 283.3m-60 0a60 60 0 1 0 120 0 60 60 0 1 0-120 0Z" fill="#5CF2FF" p-id="9002"></path><path d="M598.5 287.9m-60 0a60 60 0 1 0 120 0 60 60 0 1 0-120 0Z" fill="#5CF0FF" p-id="9003"></path><path d="M598.5 292.6m-60 0a60 60 0 1 0 120 0 60 60 0 1 0-120 0Z" fill="#5CEFFF" p-id="9004"></path><path d="M598.5 297.2m-60 0a60 60 0 1 0 120 0 60 60 0 1 0-120 0Z" fill="#5DEEFF" p-id="9005"></path><path d="M598.5 301.9m-60 0a60 60 0 1 0 120 0 60 60 0 1 0-120 0Z" fill="#5DEDFF" p-id="9006"></path><path d="M598.5 306.5m-60 0a60 60 0 1 0 120 0 60 60 0 1 0-120 0Z" fill="#5DEBFF" p-id="9007"></path><path d="M598.5 311.2m-60 0a60 60 0 1 0 120 0 60 60 0 1 0-120 0Z" fill="#5EEAFF" p-id="9008"></path><path d="M598.5 315.8m-60 0a60 60 0 1 0 120 0 60 60 0 1 0-120 0Z" fill="#5EE9FF" p-id="9009"></path><path d="M598.5 320.4m-60 0a60 60 0 1 0 120 0 60 60 0 1 0-120 0Z" fill="#5EE7FF" p-id="9010"></path><path d="M598.5 325.1m-60 0a60 60 0 1 0 120 0 60 60 0 1 0-120 0Z" fill="#5FE6FF" p-id="9011"></path><path d="M598.5 329.7m-60 0a60 60 0 1 0 120 0 60 60 0 1 0-120 0Z" fill="#5FE5FF" p-id="9012"></path><path d="M598.5 334.4m-60 0a60 60 0 1 0 120 0 60 60 0 1 0-120 0Z" fill="#5FE4FF" p-id="9013"></path><path d="M598.5 339m-60 0a60 60 0 1 0 120 0 60 60 0 1 0-120 0Z" fill="#60E2FF" p-id="9014"></path><path d="M598.5 343.7m-60 0a60 60 0 1 0 120 0 60 60 0 1 0-120 0Z" fill="#60E1FF" p-id="9015"></path><path d="M598.5 348.3m-60 0a60 60 0 1 0 120 0 60 60 0 1 0-120 0Z" fill="#60E0FF" p-id="9016"></path><path d="M598.5 353m-60 0a60 60 0 1 0 120 0 60 60 0 1 0-120 0Z" fill="#61DEFF" p-id="9017"></path><path d="M598.5 357.6m-60 0a60 60 0 1 0 120 0 60 60 0 1 0-120 0Z" fill="#61DDFF" p-id="9018"></path><path d="M598.5 362.2m-60 0a60 60 0 1 0 120 0 60 60 0 1 0-120 0Z" fill="#61DCFF" p-id="9019"></path><path d="M598.5 366.9m-60 0a60 60 0 1 0 120 0 60 60 0 1 0-120 0Z" fill="#61DBFF" p-id="9020"></path><path d="M598.5 371.5m-60 0a60 60 0 1 0 120 0 60 60 0 1 0-120 0Z" fill="#62D9FF" p-id="9021"></path><path d="M598.5 376.2m-60 0a60 60 0 1 0 120 0 60 60 0 1 0-120 0Z" fill="#62D8FF" p-id="9022"></path><path d="M598.5 380.8m-60 0a60 60 0 1 0 120 0 60 60 0 1 0-120 0Z" fill="#62D7FF" p-id="9023"></path><path d="M598.5 385.5m-60 0a60 60 0 1 0 120 0 60 60 0 1 0-120 0Z" fill="#63D5FF" p-id="9024"></path><path d="M598.5 390.1m-60 0a60 60 0 1 0 120 0 60 60 0 1 0-120 0Z" fill="#63D4FF" p-id="9025"></path><path d="M598.5 394.8m-60 0a60 60 0 1 0 120 0 60 60 0 1 0-120 0Z" fill="#63D3FF" p-id="9026"></path><path d="M598.5 399.4m-60 0a60 60 0 1 0 120 0 60 60 0 1 0-120 0Z" fill="#64D2FF" p-id="9027"></path><path d="M598.5 404m-60 0a60 60 0 1 0 120 0 60 60 0 1 0-120 0Z" fill="#64D0FF" p-id="9028"></path><path d="M598.5 408.7m-60 0a60 60 0 1 0 120 0 60 60 0 1 0-120 0Z" fill="#64CFFF" p-id="9029"></path><path d="M598.5 413.3m-60 0a60 60 0 1 0 120 0 60 60 0 1 0-120 0Z" fill="#65CEFF" p-id="9030"></path><path d="M598.5 418m-60 0a60 60 0 1 0 120 0 60 60 0 1 0-120 0Z" fill="#65CDFF" p-id="9031"></path><path d="M598.5 422.6m-60 0a60 60 0 1 0 120 0 60 60 0 1 0-120 0Z" fill="#65CBFF" p-id="9032"></path><path d="M598.5 427.3m-60 0a60 60 0 1 0 120 0 60 60 0 1 0-120 0Z" fill="#66CAFF" p-id="9033"></path><path d="M598.5 431.9m-60 0a60 60 0 1 0 120 0 60 60 0 1 0-120 0Z" fill="#66C9FF" p-id="9034"></path><path d="M598.5 436.6m-60 0a60 60 0 1 0 120 0 60 60 0 1 0-120 0Z" fill="#66C7FF" p-id="9035"></path><path d="M598.5 441.2m-60 0a60 60 0 1 0 120 0 60 60 0 1 0-120 0Z" fill="#67C6FF" p-id="9036"></path><path d="M598.5 445.8m-60 0a60 60 0 1 0 120 0 60 60 0 1 0-120 0Z" fill="#67C5FF" p-id="9037"></path><path d="M598.5 450.5m-60 0a60 60 0 1 0 120 0 60 60 0 1 0-120 0Z" fill="#67C4FF" p-id="9038"></path><path d="M598.5 455.1m-60 0a60 60 0 1 0 120 0 60 60 0 1 0-120 0Z" fill="#68C2FF" p-id="9039"></path><path d="M598.5 459.8m-60 0a60 60 0 1 0 120 0 60 60 0 1 0-120 0Z" fill="#68C1FF" p-id="9040"></path><path d="M598.5 464.4m-60 0a60 60 0 1 0 120 0 60 60 0 1 0-120 0Z" fill="#68C0FF" p-id="9041"></path><path d="M598.5 469.1m-60 0a60 60 0 1 0 120 0 60 60 0 1 0-120 0Z" fill="#69BEFF" p-id="9042"></path><path d="M598.5 473.7m-60 0a60 60 0 1 0 120 0 60 60 0 1 0-120 0Z" fill="#69BDFF" p-id="9043"></path><path d="M598.5 478.4m-60 0a60 60 0 1 0 120 0 60 60 0 1 0-120 0Z" fill="#69BCFF" p-id="9044"></path><path d="M598.5 483m-60 0a60 60 0 1 0 120 0 60 60 0 1 0-120 0Z" fill="#6ABBFF" p-id="9045"></path><path d="M598.5 487.7m-60 0a60 60 0 1 0 120 0 60 60 0 1 0-120 0Z" fill="#6AB9FF" p-id="9046"></path><path d="M598.5 492.3m-60 0a60 60 0 1 0 120 0 60 60 0 1 0-120 0Z" fill="#6AB8FF" p-id="9047"></path><path d="M598.5 496.9m-60 0a60 60 0 1 0 120 0 60 60 0 1 0-120 0Z" fill="#6BB7FF" p-id="9048"></path><path d="M598.5 501.6m-60 0a60 60 0 1 0 120 0 60 60 0 1 0-120 0Z" fill="#6BB5FF" p-id="9049"></path><path d="M598.5 506.2m-60 0a60 60 0 1 0 120 0 60 60 0 1 0-120 0Z" fill="#6BB4FF" p-id="9050"></path><path d="M598.5 510.9m-60 0a60 60 0 1 0 120 0 60 60 0 1 0-120 0Z" fill="#6CB3FF" p-id="9051"></path><path d="M598.5 515.5m-60 0a60 60 0 1 0 120 0 60 60 0 1 0-120 0Z" fill="#6CB2FF" p-id="9052"></path><path d="M598.5 520.2m-60 0a60 60 0 1 0 120 0 60 60 0 1 0-120 0Z" fill="#6CB0FF" p-id="9053"></path><path d="M598.5 524.8m-60 0a60 60 0 1 0 120 0 60 60 0 1 0-120 0Z" fill="#6DAFFF" p-id="9054"></path><path d="M598.5 529.5m-60 0a60 60 0 1 0 120 0 60 60 0 1 0-120 0Z" fill="#6DAEFF" p-id="9055"></path><path d="M598.5 534.1m-60 0a60 60 0 1 0 120 0 60 60 0 1 0-120 0Z" fill="#6DACFF" p-id="9056"></path><path d="M598.5 538.7m-60 0a60 60 0 1 0 120 0 60 60 0 1 0-120 0Z" fill="#6EABFF" p-id="9057"></path><path d="M598.5 543.4m-60 0a60 60 0 1 0 120 0 60 60 0 1 0-120 0Z" fill="#6EAAFF" p-id="9058"></path><path d="M598.5 548m-60 0a60 60 0 1 0 120 0 60 60 0 1 0-120 0Z" fill="#6EA9FF" p-id="9059"></path><path d="M598.5 552.7m-60 0a60 60 0 1 0 120 0 60 60 0 1 0-120 0Z" fill="#6FA7FF" p-id="9060"></path><path d="M598.5 557.3m-60 0a60 60 0 1 0 120 0 60 60 0 1 0-120 0Z" fill="#6FA6FF" p-id="9061"></path><path d="M598.5 562m-60 0a60 60 0 1 0 120 0 60 60 0 1 0-120 0Z" fill="#6FA5FF" p-id="9062"></path><path d="M598.5 566.6m-60 0a60 60 0 1 0 120 0 60 60 0 1 0-120 0Z" fill="#70A3FF" p-id="9063"></path><path d="M598.5 571.3m-60 0a60 60 0 1 0 120 0 60 60 0 1 0-120 0Z" fill="#70A2FF" p-id="9064"></path><path d="M598.5 575.9m-60 0a60 60 0 1 0 120 0 60 60 0 1 0-120 0Z" fill="#70A1FF" p-id="9065"></path><path d="M598.5 580.5m-60 0a60 60 0 1 0 120 0 60 60 0 1 0-120 0Z" fill="#70A0FF" p-id="9066"></path><path d="M598.5 585.2m-60 0a60 60 0 1 0 120 0 60 60 0 1 0-120 0Z" fill="#719EFF" p-id="9067"></path><path d="M598.5 589.8m-60 0a60 60 0 1 0 120 0 60 60 0 1 0-120 0Z" fill="#719DFF" p-id="9068"></path><path d="M598.5 594.5m-60 0a60 60 0 1 0 120 0 60 60 0 1 0-120 0Z" fill="#719CFF" p-id="9069"></path><path d="M598.5 599.1m-60 0a60 60 0 1 0 120 0 60 60 0 1 0-120 0Z" fill="#729AFF" p-id="9070"></path><path d="M598.5 603.8m-60 0a60 60 0 1 0 120 0 60 60 0 1 0-120 0Z" fill="#7299FF" p-id="9071"></path><path d="M598.5 608.4m-60 0a60 60 0 1 0 120 0 60 60 0 1 0-120 0Z" fill="#7298FF" p-id="9072"></path><path d="M598.5 613.1m-60 0a60 60 0 1 0 120 0 60 60 0 1 0-120 0Z" fill="#7397FF" p-id="9073"></path><path d="M598.5 617.7m-60 0a60 60 0 1 0 120 0 60 60 0 1 0-120 0Z" fill="#7395FF" p-id="9074"></path><path d="M598.5 622.3m-60 0a60 60 0 1 0 120 0 60 60 0 1 0-120 0Z" fill="#7394FF" p-id="9075"></path><path d="M598.5 627m-60 0a60 60 0 1 0 120 0 60 60 0 1 0-120 0Z" fill="#7493FF" p-id="9076"></path><path d="M598.5 631.6m-60 0a60 60 0 1 0 120 0 60 60 0 1 0-120 0Z" fill="#7491FF" p-id="9077"></path><path d="M598.5 636.3m-60 0a60 60 0 1 0 120 0 60 60 0 1 0-120 0Z" fill="#7490FF" p-id="9078"></path><path d="M598.5 640.9m-60 0a60 60 0 1 0 120 0 60 60 0 1 0-120 0Z" fill="#758FFF" p-id="9079"></path><path d="M598.5 645.6m-60 0a60 60 0 1 0 120 0 60 60 0 1 0-120 0Z" fill="#758EFF" p-id="9080"></path><path d="M598.5 650.2m-60 0a60 60 0 1 0 120 0 60 60 0 1 0-120 0Z" fill="#758CFF" p-id="9081"></path><path d="M598.5 654.9m-60 0a60 60 0 1 0 120 0 60 60 0 1 0-120 0Z" fill="#768BFF" p-id="9082"></path><path d="M598.5 659.5m-60 0a60 60 0 1 0 120 0 60 60 0 1 0-120 0Z" fill="#768AFF" p-id="9083"></path><path d="M598.5 664.1m-60 0a60 60 0 1 0 120 0 60 60 0 1 0-120 0Z" fill="#7688FF" p-id="9084"></path><path d="M598.5 668.8m-60 0a60 60 0 1 0 120 0 60 60 0 1 0-120 0Z" fill="#7787FF" p-id="9085"></path><path d="M598.5 673.4m-60 0a60 60 0 1 0 120 0 60 60 0 1 0-120 0Z" fill="#7786FF" p-id="9086"></path><path d="M598.5 678.1m-60 0a60 60 0 1 0 120 0 60 60 0 1 0-120 0Z" fill="#7785FF" p-id="9087"></path><path d="M598.5 682.7m-60 0a60 60 0 1 0 120 0 60 60 0 1 0-120 0Z" fill="#7883FF" p-id="9088"></path><path d="M598.5 687.4m-60 0a60 60 0 1 0 120 0 60 60 0 1 0-120 0Z" fill="#7882FF" p-id="9089"></path><path d="M598.5 692m-60 0a60 60 0 1 0 120 0 60 60 0 1 0-120 0Z" fill="#7881FF" p-id="9090"></path><path d="M598.5 696.7m-60 0a60 60 0 1 0 120 0 60 60 0 1 0-120 0Z" fill="#797FFF" p-id="9091"></path><path d="M598.5 701.3m-60 0a60 60 0 1 0 120 0 60 60 0 1 0-120 0Z" fill="#797EFF" p-id="9092"></path><path d="M598.5 705.9m-60 0a60 60 0 1 0 120 0 60 60 0 1 0-120 0Z" fill="#797DFF" p-id="9093"></path><path d="M598.5 710.6m-60 0a60 60 0 1 0 120 0 60 60 0 1 0-120 0Z" fill="#7A7CFF" p-id="9094"></path><path d="M598.5 715.2m-60 0a60 60 0 1 0 120 0 60 60 0 1 0-120 0Z" fill="#7A7AFF" p-id="9095"></path><path d="M598.5 719.9m-60 0a60 60 0 1 0 120 0 60 60 0 1 0-120 0Z" fill="#7A79FF" p-id="9096"></path><path d="M598.5 724.5m-60 0a60 60 0 1 0 120 0 60 60 0 1 0-120 0Z" fill="#7B78FF" p-id="9097"></path><path d="M598.5 729.2m-60 0a60 60 0 1 0 120 0 60 60 0 1 0-120 0Z" fill="#7B76FF" p-id="9098"></path><path d="M598.5 733.8m-60 0a60 60 0 1 0 120 0 60 60 0 1 0-120 0Z" fill="#7B75FF" p-id="9099"></path><path d="M598.5 738.5m-60 0a60 60 0 1 0 120 0 60 60 0 1 0-120 0Z" fill="#7C74FF" p-id="9100"></path><path d="M598.5 743.1m-60 0a60 60 0 1 0 120 0 60 60 0 1 0-120 0Z" fill="#7C73FF" p-id="9101"></path><path d="M598.5 747.7m-60 0a60 60 0 1 0 120 0 60 60 0 1 0-120 0Z" fill="#7C71FF" p-id="9102"></path><path d="M598.5 752.4m-60 0a60 60 0 1 0 120 0 60 60 0 1 0-120 0Z" fill="#7D70FF" p-id="9103"></path><path d="M598.5 757m-60 0a60 60 0 1 0 120 0 60 60 0 1 0-120 0Z" fill="#7D6FFF" p-id="9104"></path><path d="M598.5 761.7m-60 0a60 60 0 1 0 120 0 60 60 0 1 0-120 0Z" fill="#7D6EFF" p-id="9105"></path><path d="M598.5 766.3m-60 0a60 60 0 1 0 120 0 60 60 0 1 0-120 0Z" fill="#7E6CFF" p-id="9106"></path><path d="M598.5 771m-60 0a60 60 0 1 0 120 0 60 60 0 1 0-120 0Z" fill="#7E6BFF" p-id="9107"></path><path d="M598.5 775.6m-60 0a60 60 0 1 0 120 0 60 60 0 1 0-120 0Z" fill="#7E6AFF" p-id="9108"></path><path d="M598.5 780.3m-60 0a60 60 0 1 0 120 0 60 60 0 1 0-120 0Z" fill="#7F68FF" p-id="9109"></path><path d="M598.5 784.9m-60 0a60 60 0 1 0 120 0 60 60 0 1 0-120 0Z" fill="#7F67FF" p-id="9110"></path><path d="M598.5 789.5m-60 0a60 60 0 1 0 120 0 60 60 0 1 0-120 0Z" fill="#7F66FF" p-id="9111"></path><path d="M598.5 794.2m-60 0a60 60 0 1 0 120 0 60 60 0 1 0-120 0Z" fill="#7F65FF" p-id="9112"></path><path d="M598.5 798.8m-60 0a60 60 0 1 0 120 0 60 60 0 1 0-120 0Z" fill="#8063FF" p-id="9113"></path><path d="M598.5 803.5m-60 0a60 60 0 1 0 120 0 60 60 0 1 0-120 0Z" fill="#8062FF" p-id="9114"></path><path d="M598.5 808.1m-60 0a60 60 0 1 0 120 0 60 60 0 1 0-120 0Z" fill="#8061FF" p-id="9115"></path><path d="M598.5 812.8m-60 0a60 60 0 1 0 120 0 60 60 0 1 0-120 0Z" fill="#815FFF" p-id="9116"></path><path d="M598.5 817.4m-60 0a60 60 0 1 0 120 0 60 60 0 1 0-120 0Z" fill="#815EFF" p-id="9117"></path><path d="M598.5 822.1m-60 0a60 60 0 1 0 120 0 60 60 0 1 0-120 0Z" fill="#815DFF" p-id="9118"></path><path d="M598.5 826.7m-60 0a60 60 0 1 0 120 0 60 60 0 1 0-120 0Z" fill="#825CFF" p-id="9119"></path><path d="M598.5 831.3m-60 0a60 60 0 1 0 120 0 60 60 0 1 0-120 0Z" fill="#825AFF" p-id="9120"></path><path d="M598.5 836m-60 0a60 60 0 1 0 120 0 60 60 0 1 0-120 0Z" fill="#8259FF" p-id="9121"></path><path d="M598.5 840.6m-60 0a60 60 0 1 0 120 0 60 60 0 1 0-120 0Z" fill="#8358FF" p-id="9122"></path><path d="M598.5 845.3m-60 0a60 60 0 1 0 120 0 60 60 0 1 0-120 0Z" fill="#8356FF" p-id="9123"></path><path d="M598.5 849.9m-60 0a60 60 0 1 0 120 0 60 60 0 1 0-120 0Z" fill="#8355FF" p-id="9124"></path><path d="M598.5 854.6m-60 0a60 60 0 1 0 120 0 60 60 0 1 0-120 0Z" fill="#8454FF" p-id="9125"></path><path d="M598.5 859.2m-60 0a60 60 0 1 0 120 0 60 60 0 1 0-120 0Z" fill="#8453FF" p-id="9126"></path><path d="M598.5 863.9m-60 0a60 60 0 1 0 120 0 60 60 0 1 0-120 0Z" fill="#8451FF" p-id="9127"></path><path d="M598.5 868.5m-60 0a60 60 0 1 0 120 0 60 60 0 1 0-120 0Z" fill="#8550FF" p-id="9128"></path><path d="M598.5 873.2m-60 0a60 60 0 1 0 120 0 60 60 0 1 0-120 0Z" fill="#854FFF" p-id="9129"></path><path d="M598.5 877.8m-60 0a60 60 0 1 0 120 0 60 60 0 1 0-120 0Z" fill="#854DFF" p-id="9130"></path><path d="M598.5 882.4m-60 0a60 60 0 1 0 120 0 60 60 0 1 0-120 0Z" fill="#864CFF" p-id="9131"></path><path d="M598.5 887.1m-60 0a60 60 0 1 0 120 0 60 60 0 1 0-120 0Z" fill="#864BFF" p-id="9132"></path><path d="M598.5 891.7m-60 0a60 60 0 1 0 120 0 60 60 0 1 0-120 0Z" fill="#864AFF" p-id="9133"></path><path d="M598.5 896.4m-60 0a60 60 0 1 0 120 0 60 60 0 1 0-120 0Z" fill="#8748FF" p-id="9134"></path><path d="M598.5 961c33 0 60-27 60-60s-27-60-60-60-60 27-60 60c0 33.1 26.9 60 60 60z" fill="#8747FF" p-id="9135"></path></svg>